<?xml version="1.0" encoding="UTF-8"?>
<svg version="1.1" xmlns="http://www.w3.org/2000/svg" width="512" height="512">
<path d="M0 0 C0.90849197 -0.0033284 1.81698395 -0.0066568 2.75300598 -0.01008606 C4.66484069 -0.01511788 6.57668407 -0.01749555 8.48852539 -0.01733398 C11.36945559 -0.01951229 14.24999707 -0.03768596 17.13085938 -0.05664062 C36.12008657 -0.1162698 52.5009319 1.38085772 68.20703125 13.16796875 C69.43099609 14.07675781 69.43099609 14.07675781 70.6796875 15.00390625 C80.4051 23.33138465 86.90317505 35.65202054 89.20703125 48.16796875 C89.46978439 51.59509289 89.46078991 55.00367558 89.43408203 58.43945312 C89.43437408 59.43548553 89.43466614 60.43151794 89.43496704 61.45773315 C89.4335819 64.72581925 89.41805915 67.99367284 89.40234375 71.26171875 C89.39861072 73.5371488 89.39576512 75.81258046 89.39376831 78.0880127 C89.3861547 84.05892421 89.36652573 90.02973748 89.34436035 96.00061035 C89.32385293 102.1006538 89.31475614 108.20071322 89.3046875 114.30078125 C89.28327768 126.25655344 89.24916921 138.2122529 89.20703125 150.16796875 C90.39116608 150.16130692 91.5753009 150.15464508 92.7953186 150.14778137 C104.00463054 150.08672438 115.21390832 150.04187868 126.42334938 150.01253223 C132.1849732 149.99693731 137.94646179 149.9758128 143.70800781 149.94165039 C149.27771695 149.90883557 154.84729676 149.89106942 160.41709518 149.88333702 C162.53235278 149.87783298 164.64760404 149.86708599 166.76280594 149.85077858 C181.39210133 149.7425715 195.42551037 149.84808944 208.64453125 156.98046875 C209.32136963 157.33592773 209.99820801 157.69138672 210.69555664 158.05761719 C223.39801598 164.89681001 232.54558021 176.44570524 237.20703125 190.16796875 C239.04190283 196.72763331 239.47883731 202.88406073 239.40234375 209.671875 C239.39809891 211.11771217 239.39809891 211.11771217 239.39376831 212.59275818 C239.38266973 215.63879381 239.35758489 218.68452361 239.33203125 221.73046875 C239.32198809 223.80924051 239.31286459 225.88801693 239.3046875 227.96679688 C239.2827643 233.03397006 239.24830681 238.10091775 239.20703125 243.16796875 C240.41033081 243.14440308 240.41033081 243.14440308 241.63793945 243.12036133 C245.26506529 243.05808292 248.89207874 243.01900011 252.51953125 242.98046875 C253.78216797 242.95533203 255.04480469 242.93019531 256.34570312 242.90429688 C258.15844727 242.88979492 258.15844727 242.88979492 260.0078125 242.875 C261.12325439 242.85928955 262.23869629 242.8435791 263.38793945 242.82739258 C266.20703125 243.16796875 266.20703125 243.16796875 268.06958008 244.56518555 C269.48494299 246.55957437 269.60965071 247.73745628 269.58203125 250.16796875 C269.58976563 250.84859375 269.5975 251.52921875 269.60546875 252.23046875 C269.06952258 254.83663837 268.34347432 255.57696501 266.20703125 257.16796875 C263.29614258 257.50854492 263.29614258 257.50854492 259.7890625 257.4609375 C258.53544922 257.45126953 257.28183594 257.44160156 255.99023438 257.43164062 C254.67990234 257.40650391 253.36957031 257.38136719 252.01953125 257.35546875 C250.68425962 257.34041842 249.34897188 257.32673062 248.01367188 257.31445312 C244.74438549 257.27904569 241.47591032 257.22965765 238.20703125 257.16796875 C238.08585937 258.36550781 237.9646875 259.56304687 237.83984375 260.796875 C236.5911382 270.68427345 231.74924611 278.8423374 225.20703125 286.16796875 C224.6346875 286.84472656 224.06234375 287.52148438 223.47265625 288.21875 C213.20355615 299.51914862 199.11378475 304.90109473 184.20703125 306.16796875 C180.95837821 306.2935817 177.71535205 306.29514818 174.46459961 306.28149414 C173.07274445 306.28171318 173.07274445 306.28171318 171.652771 306.28193665 C168.61744768 306.28124576 165.58218746 306.27349233 162.546875 306.265625 C160.429815 306.26375789 158.31275456 306.26233537 156.19569397 306.26133728 C150.64733672 306.25753519 145.09900601 306.2477248 139.55065918 306.2366333 C133.87947956 306.22636937 128.20829562 306.22182902 122.53710938 306.21679688 C111.42707173 306.2061003 100.3170537 306.18905184 89.20703125 306.16796875 C89.2159137 307.41696457 89.22479614 308.66596039 89.23394775 309.95280457 C89.31529381 321.76576847 89.37512121 333.57867499 89.41427994 345.39185619 C89.43508912 351.464075 89.46328453 357.53606635 89.50878906 363.6081543 C89.55248505 369.47612534 89.57621842 375.34387861 89.58654022 381.21199989 C89.5938891 383.44253272 89.60823895 385.67305463 89.62995148 387.90349388 C89.80958453 407.1341134 87.59734273 423.71497748 73.984375 438.51953125 C59.25869535 452.17719457 42.81022945 456.31031516 23.28125 456.3359375 C22.3718013 456.3392659 21.4623526 456.3425943 20.52534485 456.34602356 C18.61529032 456.35104891 16.70522715 456.35343326 14.79516602 456.35327148 C11.9121213 456.35545543 9.02946157 456.3736516 6.14648438 456.39257812 C-13.87489943 456.45521379 -30.80788598 454.45025975 -46.79296875 441.16796875 C-47.43878906 440.6471875 -48.08460938 440.12640625 -48.75 439.58984375 C-58.25566351 431.09268178 -64.08686554 417.60648981 -65.79296875 405.16796875 C-65.93137886 401.91115332 -65.91945453 398.65824695 -65.90649414 395.39892578 C-65.90664017 394.43244614 -65.90678619 393.46596649 -65.90693665 392.47019958 C-65.90624226 389.28870365 -65.89847208 386.10726691 -65.890625 382.92578125 C-65.88875914 380.71475252 -65.88733603 378.50372338 -65.88633728 376.29269409 C-65.88252537 370.48289848 -65.8727064 364.67312799 -65.8616333 358.86334229 C-65.85139067 352.93103373 -65.84683355 346.9987211 -65.84179688 341.06640625 C-65.83108294 329.43358273 -65.81402244 317.80077783 -65.79296875 306.16796875 C-66.94173996 306.17240997 -68.09051117 306.1768512 -69.27409363 306.181427 C-80.14526284 306.22212042 -91.01641643 306.25202353 -101.88764477 306.27159309 C-107.47550337 306.28199247 -113.06330006 306.29608082 -118.65112305 306.31884766 C-124.05224013 306.34071394 -129.45329798 306.35256624 -134.85445595 306.35772324 C-136.90633386 306.36139439 -138.95820884 306.36856262 -141.01006126 306.37942886 C-162.90667778 306.49068804 -182.38095858 305.0295202 -199.04296875 289.00390625 C-206.40971167 281.10698107 -214.79296875 269.46033607 -214.79296875 258.16796875 C-215.49905273 258.18891602 -216.20513672 258.20986328 -216.93261719 258.23144531 C-220.13592251 258.31466173 -223.33900038 258.3666466 -226.54296875 258.41796875 C-227.65414062 258.45148438 -228.7653125 258.485 -229.91015625 258.51953125 C-230.98007813 258.53242188 -232.05 258.5453125 -233.15234375 258.55859375 C-234.13686523 258.57954102 -235.12138672 258.60048828 -236.13574219 258.62207031 C-239.55755182 258.03730681 -240.71179057 256.89959095 -242.79296875 254.16796875 C-243.52369648 248.21775725 -243.52369648 248.21775725 -241.61206055 245.47143555 C-239.08506833 243.66072404 -237.33790945 243.82598556 -234.25 243.875 C-232.6402832 243.88950195 -232.6402832 243.88950195 -230.99804688 243.90429688 C-229.87849609 243.92943359 -228.75894531 243.95457031 -227.60546875 243.98046875 C-226.47431641 243.99400391 -225.34316406 244.00753906 -224.17773438 244.02148438 C-221.38233558 244.05686917 -218.58788983 244.10623927 -215.79296875 244.16796875 C-215.81391602 242.97945312 -215.83486328 241.7909375 -215.85644531 240.56640625 C-215.92986044 236.07857731 -215.97513036 231.59079916 -216.01269531 227.10253906 C-216.03258303 225.17471335 -216.05970314 223.24694608 -216.09472656 221.31933594 C-216.46122403 200.60144975 -213.84797258 183.12833317 -199.17578125 167.38378906 C-187.2769426 155.253051 -172.10875024 150.19915449 -155.42396259 149.9575634 C-150.44904252 149.92781929 -145.47489674 149.94728215 -140.5 149.97265625 C-138.34095898 149.97639184 -136.18191625 149.97923623 -134.02287292 149.98123169 C-128.37258121 149.98882513 -122.72239423 150.00843631 -117.07214355 150.03063965 C-111.29355282 150.05119099 -105.51494497 150.06025318 -99.73632812 150.0703125 C-88.42182928 150.09168663 -77.10740777 150.12577015 -65.79296875 150.16796875 C-65.8029615 148.34752045 -65.8029615 148.34752045 -65.81315613 146.49029541 C-65.87414835 135.01546893 -65.9190281 123.54067563 -65.94840527 112.06572342 C-65.9640164 106.16728168 -65.98517119 100.26897151 -66.01928711 94.37060547 C-66.05204327 88.67122872 -66.06985595 82.97197801 -66.07760048 77.27251434 C-66.0831149 75.10536467 -66.09388275 72.93822136 -66.11015892 70.77112579 C-66.25774092 50.29446747 -63.99257331 32.68801587 -49.03515625 17.27734375 C-34.8975082 3.97711736 -18.8971435 0.02473433 0 0 Z " fill="#E74424" transform="translate(242.79296875,27.83203125)"/>
<path d="M0 0 C0.66 0 1.32 0 2 0 C2.07881409 0.96495895 2.15762817 1.92991791 2.23883057 2.92411804 C4.33690786 28.60527183 6.45056215 54.28511173 8.58221436 79.96350098 C8.8431628 83.10757165 9.10356342 86.25168633 9.36309814 89.39587402 C9.92418102 96.1911532 10.49065575 102.98586909 11.0748291 109.77920532 C11.23240089 111.62448268 11.38713709 113.47000452 11.53894043 115.31576538 C11.74348517 117.79588464 11.95805171 120.27491516 12.17578125 122.75390625 C12.23073257 123.44773407 12.2856839 124.14156189 12.34230042 124.85641479 C12.65536098 128.27766677 12.99699966 131.14915965 15 134 C18.14885337 135.02680001 20.00794243 135.48682709 23.03497314 134.00138855 C25.85934304 131.12475531 26.5697051 127.83752783 27.56542969 124.0402832 C27.79034592 123.23029877 28.01526215 122.42031433 28.24699402 121.58578491 C28.98597219 118.91107965 29.70394555 116.23120563 30.421875 113.55078125 C30.93053953 111.69383618 31.4405058 109.83724725 31.95172119 107.98100281 C33.29304444 103.09693802 34.6166215 98.20823354 35.93658447 93.31835938 C37.28690028 88.32846269 38.65391051 83.34314722 40.01953125 78.35742188 C42.6960644 68.57603072 45.35387575 58.78965778 48 49 C50.31762988 51.31762988 50.49890931 52.41755905 51.17333984 55.56982422 C51.38050629 56.51775848 51.58767273 57.46569275 51.80111694 58.44235229 C52.01885773 59.46942291 52.23659851 60.49649353 52.4609375 61.5546875 C52.93709178 63.71753783 53.41366744 65.88029542 53.890625 68.04296875 C54.63563608 71.46087909 55.37599722 74.87965744 56.10839844 78.30029297 C56.81718576 81.59639185 57.5441297 84.88807765 58.2734375 88.1796875 C58.48712982 89.20270966 58.70082214 90.22573181 58.92098999 91.27975464 C60.30762048 98.11107196 60.30762048 98.11107196 65 103 C68.1154892 103.41142752 68.1154892 103.41142752 71 102 C73.27188583 97.45748652 74.6393709 93.00618237 75.80932617 88.05493164 C75.96582138 87.40042023 76.12231659 86.74590881 76.28355408 86.07156372 C76.79267209 83.93579704 77.2928878 81.79805519 77.79296875 79.66015625 C78.14685388 78.16787355 78.50129893 76.67572354 78.85627747 75.18370056 C79.78409573 71.27733523 80.70434858 67.3692264 81.62298584 63.46069336 C82.56371632 59.46424165 83.51166199 55.46950265 84.45898438 51.47460938 C86.31301686 43.65138892 88.15905275 35.82630994 90 28 C90.66 28.33 91.32 28.66 92 29 C92.51085222 31.33179708 92.88982844 33.58320655 93.20507812 35.94384766 C93.30944687 36.67092422 93.41381561 37.39800079 93.52134705 38.14710999 C93.86666099 40.56828641 94.19896709 42.99106609 94.53125 45.4140625 C94.76944709 47.10316746 95.00843162 48.79216155 95.24816895 50.48104858 C95.88016747 54.94913184 96.50112239 59.41868486 97.11993408 63.88861084 C97.74373305 68.37982313 98.37828082 72.86951402 99.01171875 77.359375 C99.83681634 83.21933068 100.66049516 89.07947955 101.47463226 94.94096947 C101.68561201 96.45842579 101.89786563 97.97570562 102.11148834 99.49279213 C102.61451617 103.08984583 103.08720969 106.68607989 103.49633789 110.29510498 C103.57684639 110.97630087 103.65735489 111.65749676 103.74030304 112.35933495 C103.95510327 114.19618845 104.15730716 116.03450284 104.35852051 117.87289429 C105.04050283 121.19744456 105.93714196 123.31290905 108 126 C111 126.66666667 111 126.66666667 114 126 C126.00231459 113.99768541 125.95764103 94.2075824 131 78 C179.18 78 227.36 78 277 78 C275.5414829 89.66813684 271.81431692 98.24993505 264 107 C263.42765625 107.67675781 262.8553125 108.35351562 262.265625 109.05078125 C251.9965249 120.35117987 237.9067535 125.73312598 223 127 C219.75134696 127.12561295 216.5083208 127.12717943 213.25756836 127.11352539 C211.8657132 127.11374443 211.8657132 127.11374443 210.44573975 127.1139679 C207.41041643 127.11327701 204.37515621 127.10552358 201.33984375 127.09765625 C199.22278375 127.09578914 197.10572331 127.09436662 194.98866272 127.09336853 C189.44030547 127.08956644 183.89197476 127.07975605 178.34362793 127.06866455 C172.67244831 127.05840062 167.00126437 127.05386027 161.33007812 127.04882812 C150.22004048 127.03813155 139.11002245 127.02108309 128 127 C128.00888245 128.24899582 128.01776489 129.49799164 128.0269165 130.78483582 C128.10826256 142.59779972 128.16808996 154.41070624 128.20724869 166.22388744 C128.22805787 172.29610625 128.25625328 178.3680976 128.30175781 184.44018555 C128.3454538 190.30815659 128.36918717 196.17590986 128.37950897 202.04403114 C128.38685785 204.27456397 128.4012077 206.50508588 128.42292023 208.73552513 C128.60255328 227.96614465 126.39031148 244.54700873 112.77734375 259.3515625 C98.0516641 273.00922582 81.6031982 277.14234641 62.07421875 277.16796875 C61.16477005 277.17129715 60.25532135 277.17462555 59.3183136 277.17805481 C57.40825907 277.18308016 55.4981959 277.18546451 53.58813477 277.18530273 C50.70509005 277.18748668 47.82243032 277.20568285 44.93945312 277.22460938 C24.91806932 277.28724504 7.98508277 275.282291 -8 262 C-8.64582031 261.47921875 -9.29164063 260.9584375 -9.95703125 260.421875 C-19.46269476 251.92471303 -25.29389679 238.43852106 -27 226 C-27.13841011 222.74318457 -27.12648578 219.4902782 -27.11352539 216.23095703 C-27.11367142 215.26447739 -27.11381744 214.29799774 -27.1139679 213.30223083 C-27.11327351 210.1207349 -27.10550333 206.93929816 -27.09765625 203.7578125 C-27.09579039 201.54678377 -27.09436728 199.33575463 -27.09336853 197.12472534 C-27.08955662 191.31492973 -27.07973765 185.50515924 -27.06866455 179.69537354 C-27.05842192 173.76306498 -27.0538648 167.83075235 -27.04882812 161.8984375 C-27.03811419 150.26561398 -27.02105369 138.63280908 -27 127 C-28.14877121 127.00444122 -29.29754242 127.00888245 -30.48112488 127.01345825 C-41.35229409 127.05415167 -52.22344768 127.08405478 -63.09467602 127.10362434 C-68.68253462 127.11402372 -74.27033131 127.12811207 -79.8581543 127.15087891 C-85.25927138 127.17274519 -90.66032923 127.18459749 -96.0614872 127.18975449 C-98.11336511 127.19342564 -100.16524009 127.20059387 -102.21709251 127.21146011 C-124.11370903 127.32271929 -143.58798983 125.86155145 -160.25 109.8359375 C-167.61674292 101.93901232 -176 90.29236732 -176 79 C-174.88597667 78.99918285 -174.88597667 78.99918285 -173.74944782 78.99834919 C-155.68020159 78.98338336 -137.6112112 78.94094467 -119.54210377 78.86790943 C-110.80400106 78.83325291 -102.0660562 78.80790305 -93.32788086 78.80444336 C-85.71186434 78.80140437 -78.09612891 78.78092291 -70.48022097 78.73947543 C-66.4473861 78.71813752 -62.41495093 78.7055487 -58.3820591 78.71384621 C-54.58563574 78.72138162 -50.79002257 78.7055857 -46.99374771 78.67193985 C-45.60101013 78.66370023 -44.20819208 78.66396428 -42.81546211 78.67340279 C-34.82805823 78.89575347 -34.82805823 78.89575347 -27.76342773 75.76504517 C-26.1289044 73.2021214 -24.89223482 70.96884948 -23.90698242 68.09985352 C-23.57280807 67.15018204 -23.23863373 66.20051056 -22.89433289 65.22206116 C-22.55150772 64.20132004 -22.20868256 63.18057892 -21.85546875 62.12890625 C-21.29524773 60.51978615 -21.29524773 60.51978615 -20.72370911 58.87815857 C-19.53130778 55.44415276 -18.35888329 52.00372516 -17.1875 48.5625 C-16.41217641 46.31398057 -15.63549577 44.06592858 -14.85742188 41.81835938 C-13.70311795 38.48365299 -12.54976387 35.14866345 -11.40206909 31.81167603 C-7.73346392 21.15939445 -3.893787 10.57176343 0 0 Z " fill="#E74424" transform="translate(204,207)"/>
<path d="M0 0 C1.65100098 1.05584717 1.65100098 1.05584717 3 3 C3.51342645 5.54582881 3.85316911 7.90885424 4.08398438 10.48144531 C4.2001926 11.60867949 4.2001926 11.60867949 4.31874847 12.75868607 C4.56187077 15.17121835 4.78353173 17.58493975 5 20 C5.07074738 20.76694687 5.14149475 21.53389374 5.21438599 22.32408142 C5.73223987 27.97872623 6.19743435 33.63718534 6.65625 39.296875 C6.80524548 41.10559493 6.95454428 42.91428989 7.10412598 44.72296143 C7.49382384 49.44258603 7.88024862 54.16247205 8.26568604 58.88244629 C8.88137692 66.41732232 9.50145108 73.95183692 10.12284851 81.4862442 C10.33569582 84.07395551 10.54670196 86.66181153 10.75744629 89.24969482 C11.73443913 101.17685707 12.8406949 113.08923154 14 125 C15.69635528 121.72293545 16.76846744 118.59398914 17.73999023 115.02563477 C18.07050888 113.82080948 18.40102753 112.61598419 18.74156189 111.37464905 C18.91531782 110.73388994 19.08907375 110.09313084 19.26809502 109.43295479 C19.81496398 107.4179342 20.3676059 105.40457886 20.92189026 103.3915863 C22.4963824 97.66982455 24.06119873 91.94543936 25.62036133 86.21948242 C26.57592704 82.71179813 27.53882903 79.20619388 28.5061512 75.70173454 C28.87218995 74.36972624 29.2353803 73.03693166 29.59560966 71.70334053 C30.10040488 69.83494303 30.61531421 67.96928711 31.13061523 66.10375977 C31.41992416 65.0432692 31.70923309 63.98277863 32.00730896 62.89015198 C33.13476782 59.60763272 34.51210017 56.48789983 37 54 C40.36865684 53.6257048 42.27266818 53.46620305 45.05615234 55.5090332 C47.62502273 58.80094284 48.39653431 62.17417617 49.2890625 66.16796875 C49.47842377 66.96221756 49.66778503 67.75646637 49.86288452 68.57478333 C50.46377955 71.10939464 51.04457307 73.64813218 51.625 76.1875 C52.02213195 77.87595864 52.42055677 79.56411376 52.8203125 81.25195312 C54.60520522 88.82179657 56.32217092 96.40574446 58 104 C58.22026855 103.09386963 58.44053711 102.18773926 58.66748047 101.25415039 C58.81576797 100.64423248 58.96405548 100.03431458 59.11683655 99.40591431 C59.45811331 98.00202839 59.79928523 96.59811699 60.1403656 95.19418335 C61.1196001 91.16463864 62.10119503 87.1356894 63.08666992 83.10766602 C65.09622629 74.88477064 67.08855969 66.65897646 69.01422119 58.41596985 C69.89174577 54.66492634 70.77999711 50.91646036 71.66925049 47.16818237 C72.09705173 45.35210746 72.51972814 43.53481747 72.93719482 41.71633911 C73.52453092 39.16049152 74.12948085 36.60940026 74.73828125 34.05859375 C74.9926017 32.9203566 74.9926017 32.9203566 75.25205994 31.75912476 C76.29950803 27.46080674 77.34809592 24.62551555 81 22 C84.53032131 22 86.92620966 22.02794679 89.61323547 24.46038818 C91.72775904 28.33276084 92.05960856 32.29474015 92.62573242 36.63378906 C92.76272049 37.60973022 92.89970856 38.58567139 93.04084778 39.59118652 C93.49041871 42.81454082 93.92299485 46.03993613 94.35546875 49.265625 C94.66402086 51.50207701 94.97363064 53.73838334 95.28425598 55.97454834 C96.09870593 61.85857107 96.89876246 67.74446456 97.69586182 73.63085938 C98.51188329 79.63791202 99.34146818 85.64308912 100.16992188 91.6484375 C101.79324625 103.43049328 103.40137472 115.21456941 105 127 C105.16081055 126.44538086 105.32162109 125.89076172 105.48730469 125.31933594 C106.22824476 122.79210667 106.9888768 120.27122061 107.75 117.75 C108.00265625 116.87730469 108.2553125 116.00460937 108.515625 115.10546875 C108.7734375 114.26113281 109.03125 113.41679687 109.296875 112.546875 C109.52729492 111.77182617 109.75771484 110.99677734 109.99511719 110.19824219 C111.29805534 107.34798585 112.47124049 105.87859012 115 104 C117.58682009 103.60886087 119.74824746 103.46285327 122.33229065 103.49879456 C123.07271463 103.49326016 123.81313861 103.48772576 124.57599968 103.48202366 C127.05825023 103.4684049 129.5394974 103.48339216 132.02172852 103.49829102 C133.80068387 103.4945083 135.57963629 103.48900865 137.35858154 103.48191833 C142.19116155 103.46794122 147.02338644 103.47914886 151.85594678 103.49562955 C156.90876382 103.50946389 161.9615599 103.5030219 167.01438904 103.49949646 C175.49915298 103.49679331 183.98377555 103.51027985 192.46850586 103.53344727 C202.28541993 103.56006621 212.1020977 103.56180177 221.91903549 103.5500589 C231.35478087 103.53928976 240.79044056 103.54546084 250.22617912 103.55961418 C254.24567624 103.56538063 258.26511079 103.56528616 262.28460884 103.56054878 C267.01490532 103.55578575 271.74494215 103.56585262 276.47518921 103.58750343 C278.2138729 103.59308037 279.9525815 103.59352832 281.69126701 103.58855057 C284.05936635 103.58261974 286.42666586 103.59505953 288.79469299 103.61231995 C289.48748763 103.6063099 290.18028227 103.60029986 290.89407068 103.59410769 C293.75281043 103.63216377 295.57655887 103.69142176 297.92542934 105.40313625 C299.26497403 107.39376418 299.4021326 108.61233119 299.375 111 C299.38273438 111.680625 299.39046875 112.36125 299.3984375 113.0625 C298.85832943 115.68890789 298.16947405 116.40857673 296 118 C292.91343403 118.36914349 292.91343403 118.36914349 289.03352356 118.36076355 C288.32042217 118.36332682 287.60732079 118.3658901 286.87261027 118.36853105 C284.47710118 118.37348243 282.08221885 118.35695429 279.68676758 118.34057617 C277.97206131 118.33973019 276.25735395 118.34020448 274.54264832 118.34190369 C269.88172284 118.34276619 265.22102789 118.32509917 260.56015611 118.30418181 C255.69145764 118.28545752 250.82275418 118.28366793 245.95402527 118.28010559 C236.73175619 118.27077262 227.50959351 118.24614191 218.28737134 118.21605712 C207.78933028 118.18255204 197.29128419 118.1660369 186.793203 118.15097082 C165.19540923 118.11959345 143.59771131 118.06680864 122 118 C121.86923758 118.67216616 121.73847515 119.34433231 121.60375023 120.03686714 C121.42871279 120.92632971 121.25367535 121.81579227 121.07333374 122.73220825 C120.90132132 123.61062441 120.72930889 124.48904057 120.55208397 125.39407539 C119.75398712 129.16122011 118.67999868 132.81682263 117.5390625 136.4921875 C117.3072226 137.2454129 117.07538269 137.99863831 116.83651733 138.77468872 C116.35015309 140.34674319 115.86100788 141.91793987 115.36914062 143.48828125 C114.62129743 145.88687545 113.89255984 148.29078235 113.1640625 150.6953125 C112.68605354 152.2321314 112.20692648 153.76860308 111.7265625 155.3046875 C111.51287018 156.01825409 111.29917786 156.73182068 111.07901001 157.4670105 C109.76769266 161.57133419 108.45539776 164.35606555 105 167 C101.9375 167.4375 101.9375 167.4375 99 167 C92.14645175 161.5016016 92.80574188 146.96200376 91.6875 138.609375 C91.47131185 137.01665376 91.25475224 135.4239829 91.0378418 133.83135986 C90.46983093 129.65459258 89.90615626 125.47725242 89.34362793 121.29974365 C88.44474626 114.62997779 87.53913145 107.96112286 86.63369751 101.29224396 C86.32114495 98.98567291 86.01038462 96.67886636 85.69995117 94.37200928 C84.5561913 85.90023423 83.33743156 77.44373985 82 69 C80.86677466 73.48146308 79.73729207 77.96385126 78.61071777 82.44699097 C78.20403446 84.06382741 77.79656545 85.68046643 77.38830566 87.29690552 C75.08124804 96.43658713 72.83838525 105.58216512 70.796875 114.78515625 C70.44802371 116.3393795 70.0990673 117.89357916 69.75 119.44775391 C69.24983568 121.67763314 68.75625419 123.90794061 68.28320312 126.14373779 C67.84536184 128.21297244 67.38566815 130.2762964 66.921875 132.33984375 C66.67018555 133.50894287 66.41849609 134.67804199 66.15917969 135.88256836 C64.76822151 139.62333184 63.08447209 141.49949556 60 144 C56.875 144.0625 56.875 144.0625 54 143 C51.47411408 140.20915324 50.46485272 137.78404744 49.6496582 134.13964844 C49.42965652 133.17895447 49.20965485 132.2182605 48.98298645 131.22845459 C48.75785873 130.19915833 48.53273102 129.16986206 48.30078125 128.109375 C48.0608696 127.04962463 47.82095795 125.98987427 47.57377625 124.89801025 C46.81069206 121.51735809 46.06144292 118.13381008 45.3125 114.75 C44.79713304 112.45552479 44.28086765 110.16125117 43.76367188 107.8671875 C42.49868549 102.24708816 41.24503994 96.62454977 40 91 C36.85907908 100.81233278 33.93118174 110.64759778 31.29064941 120.60715485 C30.34071561 124.18000998 29.37158051 127.74768677 28.40625 131.31640625 C27.19196834 135.81041382 25.9834015 140.30576231 24.79296875 144.80615234 C23.81736315 148.49236349 22.82412915 152.17341972 21.81896973 155.85167694 C21.44249882 157.24214469 21.07251704 158.63438718 20.70935059 160.02838898 C20.2032844 161.96773517 19.67246497 163.90057078 19.140625 165.83300781 C18.70024902 167.47937225 18.70024902 167.47937225 18.25097656 169.15899658 C16.74054636 172.5892266 15.14771226 174.01115407 12 176 C8.875 176.0625 8.875 176.0625 6 175 C3.27742712 171.34640003 2.54345002 168.38801594 2.17211914 163.8918457 C2.06500107 162.67045395 1.957883 161.44906219 1.84751892 160.19065857 C1.74314318 158.85238598 1.63903027 157.51409287 1.53515625 156.17578125 C1.41678755 154.7712749 1.29730132 153.36686235 1.17677307 151.96253967 C0.85658647 148.19407858 0.55219118 144.4244966 0.25104523 140.65447235 C-0.06374688 136.7443526 -0.39229907 132.83538888 -0.71923828 128.92626953 C-1.30893913 121.84981364 -1.88569617 114.77237176 -2.45703506 107.69441223 C-2.95300568 101.55839322 -3.46258579 95.42360075 -3.97639465 89.28904724 C-4.35954473 84.70874968 -4.73791831 80.12806997 -5.11428833 75.54721069 C-5.28646357 73.45226754 -5.45952172 71.35739675 -5.6335144 69.26260376 C-7.30966006 48.96955497 -7.30966006 48.96955497 -7 40 C-7.66 40 -8.32 40 -9 40 C-9.20753906 41.14082031 -9.41507813 42.28164062 -9.62890625 43.45703125 C-11.33077986 51.08647863 -14.24250958 58.36573899 -16.9375 65.6875 C-17.52048004 67.27918785 -18.10315858 68.87098616 -18.68554688 70.46289062 C-19.57699691 72.89926304 -20.46896276 75.33543392 -21.3633728 77.77072144 C-23.06736038 82.41743675 -24.74048488 87.07328194 -26.37586975 91.74458313 C-27.34591943 94.51411221 -28.32740034 97.27952049 -29.31008911 100.04458618 C-29.76657491 101.33840348 -30.21773564 102.63411309 -30.66329956 103.93173218 C-31.28186856 105.73037291 -31.92172565 107.52164984 -32.5625 109.3125 C-32.91441406 110.31925781 -33.26632813 111.32601562 -33.62890625 112.36328125 C-35.32885486 115.63241319 -36.91670237 116.98107073 -40 119 C-43.24340153 119.50336456 -43.24340153 119.50336456 -46.99024963 119.50793457 C-47.68181984 119.51417453 -48.37339005 119.5204145 -49.08591694 119.52684355 C-51.39690169 119.5427637 -53.70683021 119.53017422 -56.01782227 119.51757812 C-57.67707941 119.52299967 -59.33633174 119.53012251 -60.99557495 119.53881836 C-65.49759011 119.55704952 -69.9992385 119.54998548 -74.50126004 119.53730202 C-79.21194526 119.52717496 -83.92259907 119.53656672 -88.63328552 119.54284668 C-96.54293456 119.55012323 -104.45243419 119.54053445 -112.36206055 119.52148438 C-121.50931054 119.49970808 -130.65620402 119.50677243 -139.8034454 119.52879 C-147.65580409 119.54693482 -155.50805539 119.54950705 -163.36042827 119.53903532 C-168.05094336 119.5327963 -172.74129078 119.53197611 -177.43179512 119.54518127 C-181.84043086 119.5567261 -186.24860628 119.54873931 -190.65719223 119.52560425 C-192.27612862 119.52031013 -193.89510367 119.52184296 -195.51402473 119.53065491 C-197.72211945 119.5415668 -199.92873395 119.52790216 -202.13673401 119.50793457 C-203.37281686 119.50642647 -204.60889971 119.50491837 -205.88243961 119.50336456 C-209.6026135 118.90270139 -210.79922533 118.01659864 -213 115 C-213.72465982 109.0991986 -213.72465982 109.0991986 -211.88433361 106.30770397 C-209.07406024 104.35740938 -206.81054401 104.63145024 -203.41316223 104.63923645 C-202.40476344 104.63539154 -202.40476344 104.63539154 -201.37599295 104.63146895 C-199.11866501 104.62651931 -196.86200286 104.64304262 -194.60473633 104.65942383 C-192.98855098 104.66026985 -191.37236448 104.65979545 -189.75617981 104.65809631 C-185.36383499 104.65723396 -180.97173488 104.67489852 -176.57944703 104.69581819 C-171.99102146 104.71454499 -167.40259057 104.71633227 -162.81413269 104.71989441 C-154.12309999 104.72922664 -145.43218021 104.75385635 -136.74119729 104.78394288 C-126.84774057 104.81745025 -116.95427853 104.83396367 -107.06077921 104.84902918 C-86.70712306 104.88040489 -66.35356864 104.93318826 -46 105 C-45.70569532 103.89918941 -45.70569532 103.89918941 -45.4054451 102.77614021 C-45.14284267 101.8020162 -44.88024025 100.82789219 -44.60968018 99.82424927 C-44.35160206 98.86350054 -44.09352394 97.90275181 -43.82762527 96.91288948 C-42.52860591 92.34089301 -40.9243364 87.89322971 -39.296875 83.4296875 C-38.94192459 82.44542282 -38.58697418 81.46115814 -38.2212677 80.44706726 C-37.06865685 77.25473734 -35.90971324 74.06475597 -34.75 70.875 C-33.94633284 68.65754331 -33.14286835 66.44001316 -32.33959961 64.22241211 C-30.70070283 59.70027439 -29.0588552 55.17922054 -27.41552734 50.65869141 C-25.4805956 45.33180042 -23.5600639 39.99989263 -21.646698 34.66522217 C-20.27997644 30.85773892 -18.90637536 27.05276299 -17.53112793 23.24835205 C-16.88796718 21.46496901 -16.24756226 19.68058957 -15.60998535 17.89520264 C-14.72830818 15.42851857 -13.83622089 12.96584927 -12.94140625 10.50390625 C-12.68591507 9.78128098 -12.43042389 9.0586557 -12.16719055 8.31413269 C-9.56717961 1.23039914 -7.77816806 -0.83337515 0 0 Z " fill="#F6EEE2" transform="translate(213,167)"/>
</svg>
